<svg xmlns="http://www.w3.org/2000/svg" width="2237" height="2500" fill-rule="evenodd" clip-rule="evenodd" image-rendering="optimizeQuality" shape-rendering="geometricPrecision" text-rendering="geometricPrecision" viewBox="0 0 7636 8533">
  <g fill-rule="nonzero">
    <path fill="#ffed00" d="M72 7121a314 314 0 0 0 241 514h7009c173 1 314-140 314-313V314a314 314 0 0 0-513-243z"/>
    <path d="M3554 5495c-27 11-55 17-83 17-44 0-83-8-118-23a254 254 0 0 1-144-157 357 357 0 0 1 0-236c13-37 31-69 55-96s54-49 89-64a291 291 0 0 1 279 29 213 213 0 0 1 81 150h-120c-8-32-22-57-43-73-22-16-48-24-78-24a137 137 0 0 0-121 61c-12 18-21 39-27 63a314 314 0 0 0 0 143c6 23 15 43 27 62a138 138 0 0 0 120 60c42 0 74-11 97-32s36-51 40-91h-127v-95h241v310h-80l-13-65c-23 29-48 49-75 61m547-217-72-211h-2l-74 211zm-7-352 215 573h-131l-44-127h-214l-45 127h-127l217-573zm345 432c7 14 16 24 28 33 11 8 25 14 40 18a192 192 0 0 0 85 3 89 89 0 0 0 64-33c7-9 11-21 11-35 0-16-5-28-15-38s-23-18-39-24c-16-7-34-12-54-17l-62-16a541 541 0 0 1-63-20c-20-7-38-18-54-30s-29-28-39-46-15-41-15-67c0-30 6-55 19-77 12-21 29-40 49-54 21-14 44-25 69-32 26-7 52-11 77-11 30 0 59 4 87 10 27 7 52 18 73 33s38 34 51 57c13 24 19 52 19 85h-122c-1-17-5-31-11-42-6-12-14-21-25-27-10-6-21-11-34-14a214 214 0 0 0-74 0c-10 2-19 5-27 11-9 5-15 12-21 20-5 8-8 18-8 30s2 21 7 28c4 7 12 13 25 19 12 6 30 12 52 18a7980 7980 0 0 0 132 34c19 6 38 14 56 27a141 141 0 0 1 69 129 160 160 0 0 1-61 131c-19 16-44 29-74 38a356 356 0 0 1-195 2c-30-8-56-20-79-37a181 181 0 0 1-73-155h122c0 19 3 36 10 49M2124 6846c19 32 43 59 73 80 30 20 64 36 103 45a489 489 0 0 0 214 5c33-7 63-18 90-33s49-35 67-59c18-25 27-56 27-94 0-63-42-111-127-143-84-31-201-63-352-95-62-13-122-30-180-49-59-18-111-43-156-74a328 328 0 0 1-152-287c0-99 19-180 58-243 39-64 90-114 153-150 63-37 135-63 214-78a1315 1315 0 0 1 486 2c78 16 148 42 209 80s112 88 153 150c41 63 65 142 73 237h-400c-6-82-37-137-93-166-55-28-121-43-196-43-24 0-50 2-78 5s-53 9-76 19-42 24-58 43-24 44-24 76c0 38 14 68 42 92s64 43 108 58c45 15 96 28 154 40l175 39c62 14 122 31 180 50 58 20 111 47 156 79 46 33 82 74 110 122a495 495 0 0 1-19 434c-41 69-94 124-159 165-65 42-140 71-224 88a1308 1308 0 0 1-519-1c-85-18-161-48-227-89-67-42-121-97-164-165s-66-154-70-257h400c0 46 10 84 29 117m2072-334a720 720 0 0 1-183 37l-102 15c-32 6-63 14-94 24-30 10-57 23-80 40s-41 38-55 64-21 59-21 98c0 38 7 69 21 95s33 46 56 61c24 15 52 25 84 31s64 9 98 9c84 0 148-14 194-41 46-28 80-61 101-100 22-39 36-78 41-117 5-40 7-72 7-95v-158c-18 16-40 28-67 37m-834-596c44-65 99-117 167-157 67-40 143-68 227-85s169-25 254-25c77 0 155 6 235 16 79 11 151 33 217 64 65 32 118 76 160 133 41 56 62 131 62 224v800c0 69 4 135 12 199 8 63 22 111 42 143l-428-2a585 585 0 0 1-20-72c-5-25-8-50-10-75a550 550 0 0 1-238 146c-91 27-184 41-279 41-74 0-142-9-205-26-64-18-119-46-167-84-47-37-84-85-111-142-27-58-40-126-40-206 0-87 15-159 46-215 31-57 70-102 119-135 48-34 104-59 166-76a1795 1795 0 0 1 189-40c64-10 126-18 188-24 61-6 116-15 163-27 48-12 86-29 113-52 28-23 41-56 39-100 0-45-7-81-22-108s-35-48-60-63c-25-14-53-24-86-29s-68-8-106-8c-83 0-149 18-196 54-48 35-76 95-84 178h-421c6-99 31-181 74-247m1429 57v-282h253v-119c0-136 42-248 127-336 85-87 214-130 386-130 37 0 75 1 113 4 37 4 74 6 110 8v314c-50-5-101-8-155-8-57 0-98 13-123 40s-37 72-37 135v92h291v282h-291v1253h-421V5973zm2018 77c-50-55-127-83-230-83-68 0-123 11-168 34a319 319 0 0 0-163 192c-11 37-18 71-20 100h687a487 487 0 0 0-106-243m-477 808c64 62 155 92 274 92 85 0 158-21 219-63 62-42 99-87 113-135h372c-60 185-151 316-274 396a805 805 0 0 1-445 118c-121 0-230-19-327-58-97-38-179-93-246-165a742 742 0 0 1-156-255c-37-99-55-208-55-327 0-115 19-222 56-321a755 755 0 0 1 408-429c96-41 203-62 320-62a681 681 0 0 1 581 279c62 85 107 182 135 291s37 223 29 342H6229c6 137 41 236 104 297m570-1780v28h-119v313h-32v-313h-119v-28zm70 0 118 299 118-299h47v341h-32v-295h-1l-117 295h-30l-118-295h-1v295h-32v-341zM3517 8206c29 0 51-7 65-19 15-13 22-34 22-63 0-28-7-48-22-60-14-13-36-19-65-19h-138v161zm45-259c26 0 49 4 70 12a152 152 0 0 1 98 146c0 34-7 63-21 87-14 25-37 44-70 56v2a97 97 0 0 1 64 51c6 12 11 25 14 40a344 344 0 0 1 8 75 634 634 0 0 0 9 75c3 11 7 21 13 29h-126c-7-18-11-40-13-65l-7-72c-4-30-14-52-28-66-13-14-36-21-68-21h-126v224h-126v-573zm700 0v106h-303v122h278v98h-278v141h310v106h-436v-573zm432 569c-28 11-55 17-83 17-44 0-83-8-119-23a254 254 0 0 1-144-157 357 357 0 0 1 0-236c13-37 32-69 56-96 24-28 54-49 89-65a290 290 0 0 1 278 29 214 214 0 0 1 82 150h-120c-8-32-22-56-44-72-21-16-47-24-78-24-28 0-52 5-72 16s-36 26-48 45c-13 18-22 39-27 63a314 314 0 0 0 0 143c5 23 14 43 27 61a138 138 0 0 0 120 60c42 0 74-10 97-31s36-52 39-92h-126v-94h241v310h-81l-13-65c-22 29-47 49-74 61m270 4h126v-574h-126zm333-141c7 13 17 24 28 32 12 9 25 15 41 19a192 192 0 0 0 84 3c13-2 25-5 36-11 11-5 21-12 28-22 8-9 11-21 11-36 1-15-4-28-14-37-10-10-23-18-39-24-16-7-35-12-55-17l-62-16a546 546 0 0 1-62-20c-21-8-39-18-55-30s-29-28-39-46c-10-19-15-41-15-67 0-30 7-55 19-77a199 199 0 0 1 119-86 349 349 0 0 1 163-1c27 7 52 18 73 33a164 164 0 0 1 70 142h-122c-1-17-5-31-11-43-6-11-14-20-24-26-10-7-22-11-35-14a215 215 0 0 0-73-1c-11 2-20 6-28 12-8 5-15 12-21 20-5 8-8 18-8 30 0 11 3 21 7 27 4 7 13 14 25 20 13 6 30 12 52 17a10856 10856 0 0 0 132 35 184 184 0 0 1 105 76c14 21 21 47 21 79 0 26-5 51-16 73-10 23-25 42-45 58-20 17-45 30-75 39a399 399 0 0 1-195 2c-30-8-56-20-79-37a181 181 0 0 1-73-155h122c0 19 3 35 10 49m380-326v-106h470v106h-172v467h-126v-467zm965-106v106h-302v122h278v98h-278v141h309v106h-436v-573zm356 259c29 0 51-7 65-19 15-13 22-34 22-63 0-28-7-48-22-60-14-13-36-19-65-19h-138v161zm45-259c26 0 49 4 70 12 21 9 38 20 53 34a160 160 0 0 1 45 111c0 35-7 64-21 88-14 25-37 44-70 56v2a97 97 0 0 1 64 51c6 12 11 25 14 40a342 342 0 0 1 8 75 651 651 0 0 0 9 75c3 11 7 21 13 29h-126c-7-18-11-40-13-65-1-25-4-49-7-72-4-30-13-52-27-66s-37-21-69-21h-126v224h-126v-573z"/>
  </g>
</svg>
