<?xml version="1.0" encoding="UTF-8" standalone="no"?>
<!-- Created with Inkscape (http://www.inkscape.org/) -->

<svg
   version="1.1"
   id="svg1"
   width="253.33333"
   height="122.66667"
   viewBox="0 0 253.33333 122.66667"
   sodipodi:docname="worcester-bosch-group-seeklogo.eps"
   xmlns:inkscape="http://www.inkscape.org/namespaces/inkscape"
   xmlns:sodipodi="http://sodipodi.sourceforge.net/DTD/sodipodi-0.dtd"
   xmlns="http://www.w3.org/2000/svg"
   xmlns:svg="http://www.w3.org/2000/svg">
  <defs
     id="defs1" />
  <sodipodi:namedview
     id="namedview1"
     pagecolor="#ffffff"
     bordercolor="#000000"
     borderopacity="0.25"
     inkscape:showpageshadow="2"
     inkscape:pageopacity="0.0"
     inkscape:pagecheckerboard="0"
     inkscape:deskcolor="#d1d1d1">
    <inkscape:page
       x="0"
       y="0"
       inkscape:label="1"
       id="page1"
       width="253.33333"
       height="122.66667"
       margin="0"
       bleed="0" />
  </sodipodi:namedview>
  <g
     id="g1"
     inkscape:groupmode="layer"
     inkscape:label="1">
    <path
       id="path1"
       d="m 12.9453,20.9883 v 65.6094 h 24.332 c 10.9649,0 19.3282,-3.1836 25.0977,-9.5469 5.1094,-5.6172 7.6602,-13.2813 7.6602,-22.9883 0,-11.1445 -3.2539,-19.6133 -9.7657,-25.4102 -5.6797,-5.1093 -13.4882,-7.664 -23.4414,-7.664 z m 14.6953,11.6523 h 9.9063 c 5.3476,0 9.5,1.6875 12.457,5.0625 3.1367,3.6172 4.707,8.9922 4.707,16.1328 0,7.8868 -1.9414,13.6094 -5.8242,17.1641 -2.8711,2.6289 -6.6797,3.9414 -11.4297,3.9453 H 27.6406 V 32.6406"
       style="fill:#2057af;fill-opacity:1;fill-rule:evenodd;stroke:none"
       transform="matrix(0.13333333,0,0,-0.13333333,0,122.66667)" />
    <path
       id="path2"
       d="m 144.273,30.8047 c -4.453,-7.2305 -11.441,-10.8438 -20.972,-10.8438 -7.352,0 -13.356,2.2969 -18.016,6.8985 -4.539,4.5117 -6.8123,10.4258 -6.8123,17.7461 0,7.7656 2.3753,14.0429 7.1253,18.8203 4.511,4.5117 10.203,6.7656 17.074,6.7695 7.051,0 12.605,-2.2734 16.672,-6.8125 3.883,-4.3633 5.824,-10.414 5.824,-18.1484 V 41.4688 H 112.59 c 0.297,-2 0.625,-3.5391 0.988,-4.6133 0.805,-2.2735 2.25,-3.9766 4.344,-5.1094 1.523,-0.8086 3.406,-1.2109 5.648,-1.2109 2.868,0 5.211,0.789 7.035,2.375 0.926,0.7773 1.836,1.8945 2.735,3.3593 z M 131.5,49.9844 c -0.301,2.8672 -0.926,5.0469 -1.883,6.5429 -1.433,2.211 -3.762,3.3165 -6.988,3.3165 -3.258,0 -5.738,-1.1836 -7.441,-3.5391 -1.043,-1.4375 -1.821,-3.543 -2.329,-6.3203 H 131.5"
       style="fill:#2057af;fill-opacity:1;fill-rule:evenodd;stroke:none"
       transform="matrix(0.13333333,0,0,-0.13333333,0,122.66667)" />
    <path
       id="path3"
       d="m 206.59,28.6094 c -3.11,-5.7696 -7.965,-8.6485 -14.567,-8.6485 -5.585,0 -10.144,2.0274 -13.668,6.0938 -3.941,4.5391 -5.914,10.875 -5.914,19 0,9.082 2.434,15.8945 7.305,20.4336 3.375,3.1367 7.496,4.707 12.367,4.707 6.485,0 11.309,-2.7656 14.477,-8.293 v 28.1915 h 14.023 V 20.9883 H 206.59 Z m -9.77,30.6484 c -6.722,0 -10.086,-4.7812 -10.086,-14.3359 0,-9.3555 3.301,-14.0274 9.907,-14.0274 3.047,0 5.453,1.0274 7.214,3.0899 2.122,2.4219 3.18,6.0937 3.18,11.0234 0,3.9453 -0.703,7.1133 -2.105,9.5039 -1.852,3.1641 -4.555,4.7461 -8.11,4.7461"
       style="fill:#2057af;fill-opacity:1;fill-rule:evenodd;stroke:none"
       transform="matrix(0.13333333,0,0,-0.13333333,0,122.66667)" />
    <path
       id="path4"
       d="m 254.16,20.9883 v 47.9961 h 14.028 V 20.9883 Z m 7.035,69.7305 c 2.301,0 4.243,-0.793 5.828,-2.375 1.493,-1.4922 2.239,-3.2696 2.239,-5.3321 0,-2.1523 -0.762,-3.9765 -2.285,-5.4687 -1.582,-1.5547 -3.528,-2.3282 -5.825,-2.3282 -2.332,0 -4.289,0.7891 -5.871,2.375 -1.496,1.4922 -2.242,3.3008 -2.242,5.4219 0,2.0625 0.746,3.8399 2.242,5.3321 1.555,1.582 3.524,2.375 5.914,2.375"
       style="fill:#2057af;fill-opacity:1;fill-rule:evenodd;stroke:none"
       transform="matrix(0.13333333,0,0,-0.13333333,0,122.66667)" />
    <path
       id="path5"
       d="m 343.5,32.8203 c -4.125,-8.5742 -11.086,-12.8594 -20.883,-12.8594 -7.113,0 -12.832,2.2071 -17.164,6.6289 -4.422,4.4844 -6.633,10.5157 -6.633,18.1055 0,7.8867 2.328,14.1914 6.993,18.9102 4.359,4.3945 9.902,6.5898 16.625,6.5898 9.41,0 16.25,-4.2578 20.523,-12.7734 L 331.309,52 c -0.868,2.0313 -1.704,3.5547 -2.508,4.5703 -1.465,1.793 -3.422,2.6875 -5.871,2.6875 -3.645,0 -6.274,-1.539 -7.887,-4.6133 -1.285,-2.4804 -1.926,-5.6757 -1.926,-9.5898 0,-9.4414 3.344,-14.1602 10.035,-14.1602 2.75,0 4.989,0.9532 6.723,2.8672 0.898,1.0156 1.75,2.5078 2.555,4.4805 l 11.07,-5.4219"
       style="fill:#2057af;fill-opacity:1;fill-rule:nonzero;stroke:none"
       transform="matrix(0.13333333,0,0,-0.13333333,0,122.66667)" />
    <path
       id="path6"
       d="m 397.66,26.6797 c -3.289,-4.4805 -7.828,-6.7188 -13.625,-6.7188 -5.047,0 -8.949,1.4922 -11.695,4.4805 -2.211,2.3594 -3.317,5.4063 -3.317,9.1406 0,4.9883 1.911,8.8125 5.735,11.4727 4.66,3.2266 12.117,4.8984 22.363,5.0195 v 1.3438 c 0,2.4492 -0.523,4.2695 -1.57,5.4648 -1.196,1.3477 -3.223,2.0195 -6.094,2.0195 -4.453,0 -8.992,-1.5546 -13.621,-4.664 l -5.961,8.9648 c 5.945,4.6602 13.117,6.9922 21.512,6.9922 7.437,0 12.816,-2.0039 16.133,-6.0039 1.609,-1.9141 2.687,-4.1836 3.226,-6.8125 0.324,-1.6133 0.488,-3.7187 0.492,-6.3203 V 29.3242 c 0,-3.0781 0.43,-5.6758 1.297,-7.7969 v -0.539 h -13.578 c -0.508,1.3437 -0.941,3.2422 -1.297,5.6914 z m -0.449,14.9687 c -3.496,-0.0586 -6.32,-0.3593 -8.469,-0.8984 -3.976,-0.9844 -5.961,-2.9414 -5.961,-5.8672 0,-1.4961 0.492,-2.6914 1.481,-3.5859 0.984,-0.8946 2.402,-1.3438 4.254,-1.3438 2.836,0 5.062,0.8047 6.679,2.418 1.344,1.3164 2.016,3 2.016,5.0664 v 4.2109"
       style="fill:#2057af;fill-opacity:1;fill-rule:evenodd;stroke:none"
       transform="matrix(0.13333333,0,0,-0.13333333,0,122.66667)" />
    <path
       id="path7"
       d="m 439.898,58.0508 v 10.9336 h 6.59 v 9.6367 l 14.024,4.8828 V 68.9844 h 10.129 V 58.0508 H 460.512 V 36.8555 c 0,-3.4961 1.343,-5.2461 4.035,-5.2461 1.613,0 3.238,0.5078 4.883,1.5234 l 3.406,-9.4101 c -3.199,-2.5079 -7.02,-3.7618 -11.473,-3.7618 -4.961,0 -8.754,1.4454 -11.383,4.3438 -2.328,2.6016 -3.492,6.2148 -3.492,10.8476 v 22.8985 h -6.59"
       style="fill:#2057af;fill-opacity:1;fill-rule:nonzero;stroke:none"
       transform="matrix(0.13333333,0,0,-0.13333333,0,122.66667)" />
    <path
       id="path8"
       d="m 544.563,30.8047 c -4.454,-7.2305 -11.442,-10.8438 -20.973,-10.8438 -7.348,0 -13.352,2.2969 -18.016,6.8985 -4.539,4.5117 -6.808,10.4258 -6.808,17.7461 0,7.7656 2.371,14.0429 7.121,18.8203 4.511,4.5117 10.203,6.7656 17.074,6.7695 7.051,0 12.609,-2.2734 16.672,-6.8125 3.883,-4.3633 5.824,-10.414 5.824,-18.1484 v -3.7656 h -32.578 c 0.301,-2 0.625,-3.5391 0.988,-4.6133 0.805,-2.2735 2.254,-3.9766 4.344,-5.1094 1.523,-0.8086 3.406,-1.2109 5.648,-1.2109 2.868,0 5.211,0.789 7.036,2.375 0.925,0.7773 1.835,1.8945 2.734,3.3593 z m -12.774,19.1797 c -0.297,2.8672 -0.926,5.0469 -1.879,6.5429 -1.433,2.211 -3.765,3.3165 -6.992,3.3165 -3.258,0 -5.734,-1.1836 -7.438,-3.5391 -1.046,-1.4375 -1.824,-3.543 -2.332,-6.3203 h 18.641"
       style="fill:#2057af;fill-opacity:1;fill-rule:evenodd;stroke:none"
       transform="matrix(0.13333333,0,0,-0.13333333,0,122.66667)" />
    <path
       id="path9"
       d="m 606.879,28.6094 c -3.109,-5.7696 -7.965,-8.6485 -14.566,-8.6485 -5.586,0 -10.141,2.0274 -13.668,6.0938 -3.942,4.5391 -5.915,10.875 -5.915,19 0,9.082 2.434,15.8945 7.305,20.4336 3.375,3.1367 7.496,4.707 12.371,4.707 6.481,0 11.305,-2.7656 14.473,-8.293 v 28.1915 h 14.027 V 20.9883 h -14.027 z m -9.77,30.6484 c -6.722,0 -10.082,-4.7812 -10.082,-14.3359 0,-9.3555 3.301,-14.0274 9.903,-14.0274 3.047,0 5.453,1.0274 7.215,3.0899 2.121,2.4219 3.179,6.0937 3.183,11.0234 0,3.9453 -0.703,7.1133 -2.109,9.5039 -1.852,3.1641 -4.555,4.7461 -8.11,4.7461"
       style="fill:#2057af;fill-opacity:1;fill-rule:evenodd;stroke:none"
       transform="matrix(0.13333333,0,0,-0.13333333,0,122.66667)" />
    <path
       id="path10"
       d="m 697.898,58.0508 v 10.9336 h 6.59 v 9.6367 l 14.028,4.8828 V 68.9844 h 10.125 V 58.0508 H 718.516 V 36.8555 c 0,-3.4961 1.343,-5.2461 4.031,-5.2461 1.613,0 3.242,0.5078 4.883,1.5234 l 3.41,-9.4101 c -3.199,-2.5079 -7.024,-3.7618 -11.473,-3.7618 -4.961,0 -8.754,1.4454 -11.383,4.3438 -2.332,2.6016 -3.496,6.2148 -3.496,10.8476 v 22.8985 h -6.59"
       style="fill:#2057af;fill-opacity:1;fill-rule:nonzero;stroke:none"
       transform="matrix(0.13333333,0,0,-0.13333333,0,122.66667)" />
    <path
       id="path11"
       d="m 781.59,70.1953 c 6.961,0 12.742,-2.3008 17.344,-6.9023 4.629,-4.6602 6.945,-10.6953 6.949,-18.1055 0,-7.5273 -2.348,-13.6367 -7.039,-18.3281 -4.602,-4.6016 -10.457,-6.8985 -17.567,-6.8985 -7.199,0 -13.086,2.2969 -17.656,6.8985 -4.57,4.5703 -6.855,10.5312 -6.855,17.8828 0,7.5859 2.386,13.7851 7.168,18.5976 4.543,4.5704 10.429,6.8555 17.656,6.8555 z m -0.043,-10.9375 c -6.992,0 -10.488,-4.7461 -10.488,-14.25 0,-5.5547 1.3,-9.5156 3.902,-11.875 1.641,-1.4922 3.73,-2.2383 6.273,-2.2383 3.731,0 6.465,1.4922 8.2,4.4805 1.433,2.418 2.152,5.6758 2.152,9.7695 0,4.0899 -0.703,7.3164 -2.109,9.6797 -1.731,2.9571 -4.375,4.4336 -7.93,4.4336"
       style="fill:#2057af;fill-opacity:1;fill-rule:evenodd;stroke:none"
       transform="matrix(0.13333333,0,0,-0.13333333,0,122.66667)" />
    <path
       id="path12"
       d="m 883.949,20.9883 v 69.1055 h 14.028 V 61.457 c 3.226,5.8243 8.203,8.7383 14.925,8.7383 5.614,0 9.739,-2.168 12.368,-6.5 C 927.09,60.6797 928,56.7773 928.004,52 V 20.9883 h -14.027 v 29.1758 c 0,6.0625 -2.407,9.0937 -7.215,9.0937 -3.047,0 -5.348,-1.0586 -6.903,-3.1797 -1.254,-1.7343 -1.882,-4.0039 -1.882,-6.8125 V 20.9883 h -14.028"
       style="fill:#2057af;fill-opacity:1;fill-rule:nonzero;stroke:none"
       transform="matrix(0.13333333,0,0,-0.13333333,0,122.66667)" />
    <path
       id="path13"
       d="m 1003.76,30.8047 c -4.447,-7.2305 -11.44,-10.8438 -20.971,-10.8438 -7.348,0 -13.351,2.2969 -18.016,6.8985 -4.539,4.5117 -6.812,10.4258 -6.812,17.7461 0,7.7656 2.375,14.0429 7.129,18.8203 4.508,4.5117 10.203,6.7656 17.074,6.7695 7.047,0 12.606,-2.2734 16.668,-6.8125 3.878,-4.3633 5.828,-10.414 5.828,-18.1484 v -3.7656 h -32.582 c 0.301,-2 0.625,-3.5391 0.988,-4.6133 0.805,-2.2735 2.254,-3.9766 4.344,-5.1094 1.528,-0.8086 3.406,-1.2109 5.649,-1.2109 2.867,0 5.211,0.789 7.035,2.375 0.926,0.7773 1.836,1.8945 2.734,3.3593 z m -12.768,19.1797 c -0.301,2.8672 -0.929,5.0469 -1.883,6.5429 -1.433,2.211 -3.765,3.3165 -6.992,3.3165 -3.258,0 -5.734,-1.1836 -7.437,-3.5391 -1.047,-1.4375 -1.825,-3.543 -2.332,-6.3203 h 18.644"
       style="fill:#2057af;fill-opacity:1;fill-rule:evenodd;stroke:none"
       transform="matrix(0.13333333,0,0,-0.13333333,0,122.66667)" />
    <path
       id="path14"
       d="m 1060.3,26.6797 c -3.29,-4.4805 -7.83,-6.7188 -13.62,-6.7188 -5.05,0 -8.95,1.4922 -11.7,4.4805 -2.21,2.3594 -3.32,5.4063 -3.32,9.1406 0,4.9883 1.91,8.8125 5.74,11.4727 4.66,3.2266 12.11,4.8984 22.36,5.0195 v 1.3438 c 0,2.4492 -0.53,4.2695 -1.57,5.4648 -1.19,1.3477 -3.23,2.0195 -6.09,2.0195 -4.46,0 -9,-1.5546 -13.63,-4.664 l -5.96,8.9648 c 5.95,4.6602 13.12,6.9922 21.51,6.9922 7.44,0 12.82,-2.0039 16.14,-6.0039 1.61,-1.9141 2.68,-4.1836 3.22,-6.8125 0.33,-1.6133 0.5,-3.7187 0.5,-6.3203 V 29.3242 c 0,-3.0781 0.43,-5.6758 1.3,-7.7969 v -0.539 h -13.58 c -0.51,1.3437 -0.94,3.2422 -1.3,5.6914 z m -0.45,14.9687 c -3.5,-0.0586 -6.32,-0.3593 -8.47,-0.8984 -3.97,-0.9844 -5.96,-2.9414 -5.96,-5.8672 0,-1.4961 0.49,-2.6914 1.48,-3.5859 0.98,-0.8946 2.4,-1.3438 4.26,-1.3438 2.83,0 5.06,0.8047 6.67,2.418 1.35,1.3164 2.02,3 2.02,5.0664 v 4.2109"
       style="fill:#2057af;fill-opacity:1;fill-rule:evenodd;stroke:none"
       transform="matrix(0.13333333,0,0,-0.13333333,0,122.66667)" />
    <path
       id="path15"
       d="m 1102.54,58.0508 v 10.9336 h 6.59 v 9.6367 l 14.02,4.8828 V 68.9844 h 10.13 V 58.0508 h -10.13 V 36.8555 c 0,-3.4961 1.35,-5.2461 4.03,-5.2461 1.62,0 3.25,0.5078 4.89,1.5234 l 3.4,-9.4101 c -3.19,-2.5079 -7.02,-3.7618 -11.47,-3.7618 -4.96,0 -8.75,1.4454 -11.38,4.3438 -2.33,2.6016 -3.49,6.2148 -3.49,10.8476 v 22.8985 h -6.59"
       style="fill:#2057af;fill-opacity:1;fill-rule:nonzero;stroke:none"
       transform="matrix(0.13333333,0,0,-0.13333333,0,122.66667)" />
    <path
       id="path16"
       d="m 1164.54,20.9883 v 47.9961 h 14.03 V 20.9883 Z m 7.03,69.7305 c 2.31,0 4.25,-0.793 5.83,-2.375 1.49,-1.4922 2.24,-3.2696 2.24,-5.3321 0,-2.1523 -0.76,-3.9765 -2.28,-5.4687 -1.59,-1.5547 -3.53,-2.3282 -5.83,-2.3282 -2.33,0 -4.29,0.7891 -5.87,2.375 -1.5,1.4922 -2.24,3.3008 -2.24,5.4219 0,2.0625 0.74,3.8399 2.24,5.3321 1.55,1.582 3.52,2.375 5.91,2.375"
       style="fill:#2057af;fill-opacity:1;fill-rule:evenodd;stroke:none"
       transform="matrix(0.13333333,0,0,-0.13333333,0,122.66667)" />
    <path
       id="path17"
       d="m 1211.93,20.9883 v 47.9961 h 14.03 V 61.457 c 3.22,5.8243 8.2,8.7383 14.92,8.7383 4.63,0 8.28,-1.5117 10.94,-4.5273 2.77,-3.168 4.16,-7.7227 4.16,-13.668 V 20.9883 h -14.02 v 29.1758 c 0,6.0625 -2.41,9.0937 -7.22,9.0937 -2.78,0 -4.94,-0.8945 -6.49,-2.6875 -1.53,-1.7344 -2.29,-4.168 -2.29,-7.3047 V 20.9883 h -14.03"
       style="fill:#2057af;fill-opacity:1;fill-rule:nonzero;stroke:none"
       transform="matrix(0.13333333,0,0,-0.13333333,0,122.66667)" />
    <path
       id="path18"
       d="m 1298.67,39.6758 c -1.28,-0.8945 -1.93,-2 -1.93,-3.3164 0,-1.4922 0.76,-2.5078 2.29,-3.0469 0.81,-0.2656 2.22,-0.4023 4.26,-0.4023 h 12.1 c 5.49,0 9.69,-1.0938 12.59,-3.2735 3.11,-2.3008 4.66,-5.6328 4.66,-9.9922 0,-5.6757 -2.33,-9.91794 -6.99,-12.72653 -4.75,-2.86719 -11.07,-4.30078 -18.96,-4.30078 -7.26,0 -13.01,1.16406 -17.25,3.49609 -3.67,2 -5.51,4.92582 -5.51,8.78122 0,3.9141 2.6,6.9883 7.79,9.2305 -3.61,2.1211 -5.42,5.0195 -5.42,8.6953 0,4.1211 2.26,7.3477 6.77,9.6797 -3.86,3.0781 -5.78,6.8867 -5.78,11.4258 0,5.1406 2.13,9.2305 6.41,12.2812 3.67,2.6563 8.14,3.9844 13.39,3.9883 4.4,0 8.54,-1.0781 12.42,-3.2265 l 12.95,2.914 V 59.3516 h -6.14 c 0.72,-2.0938 1.07,-3.9766 1.07,-5.6485 0,-5.4101 -2.44,-9.5156 -7.34,-12.3242 -3.47,-1.9726 -7.68,-2.957 -12.64,-2.957 -3.05,0 -5.96,0.4179 -8.74,1.2539 z m 0.4,-17.8789 c -1.97,-1.2852 -2.95,-2.8516 -2.95,-4.7071 0,-1.7929 0.74,-3.0898 2.24,-3.8984 1.85,-0.9844 4.73,-1.4805 8.64,-1.4805 8.64,0 12.96,2.0039 12.96,6.0079 0,1.4023 -0.54,2.4062 -1.62,3.0039 -1.04,0.5937 -2.7,0.8945 -4.97,0.8945 h -11.12 c -1.46,0 -2.52,0.0586 -3.18,0.1797 z m 8.34,39.5703 c -2.45,0 -4.33,-0.7031 -5.65,-2.1094 -1.19,-1.3125 -1.79,-3.0898 -1.79,-5.332 0,-1.6719 0.34,-3.0899 1.03,-4.2578 1.29,-2.1797 3.41,-3.2696 6.37,-3.2696 2.95,0 5.06,1.0743 6.31,3.2266 0.69,1.1641 1.03,2.6016 1.03,4.3008 0,2.332 -0.64,4.1406 -1.92,5.4258 -1.32,1.3437 -3.11,2.0156 -5.38,2.0156"
       style="fill:#2057af;fill-opacity:1;fill-rule:evenodd;stroke:none"
       transform="matrix(0.13333333,0,0,-0.13333333,0,122.66667)" />
    <path
       id="path19"
       d="m 1451.49,32.8203 c -4.12,-8.5742 -11.08,-12.8594 -20.88,-12.8594 -7.11,0 -12.84,2.2071 -17.17,6.6289 -4.42,4.4844 -6.63,10.5157 -6.63,18.1055 0,7.8867 2.33,14.1914 6.99,18.9102 4.36,4.3945 9.9,6.5898 16.63,6.5898 9.41,0 16.25,-4.2578 20.52,-12.7734 L 1439.3,52 c -0.87,2.0313 -1.7,3.5547 -2.51,4.5703 -1.47,1.793 -3.42,2.6875 -5.87,2.6875 -3.65,0 -6.27,-1.539 -7.88,-4.6133 -1.29,-2.4804 -1.93,-5.6757 -1.93,-9.5898 0,-9.4414 3.34,-14.1602 10.03,-14.1602 2.75,0 4.99,0.9532 6.73,2.8672 0.89,1.0156 1.74,2.5078 2.55,4.4805 l 11.07,-5.4219"
       style="fill:#2057af;fill-opacity:1;fill-rule:nonzero;stroke:none"
       transform="matrix(0.13333333,0,0,-0.13333333,0,122.66667)" />
    <path
       id="path20"
       d="m 1502.11,70.1953 c 6.96,0 12.74,-2.3008 17.34,-6.9023 4.63,-4.6602 6.95,-10.6953 6.95,-18.1055 0,-7.5273 -2.35,-13.6367 -7.04,-18.3281 -4.6,-4.6016 -10.45,-6.8985 -17.56,-6.8985 -7.21,0 -13.09,2.2969 -17.66,6.8985 -4.57,4.5703 -6.86,10.5312 -6.86,17.8828 0,7.5859 2.39,13.7851 7.17,18.5976 4.54,4.5704 10.43,6.8555 17.66,6.8555 z m -0.04,-10.9375 c -7,0 -10.49,-4.7461 -10.49,-14.25 0,-5.5547 1.3,-9.5156 3.9,-11.875 1.64,-1.4922 3.73,-2.2383 6.27,-2.2383 3.73,0 6.47,1.4922 8.2,4.4805 1.44,2.418 2.15,5.6758 2.15,9.7695 0,4.0899 -0.7,7.3164 -2.1,9.6797 -1.74,2.9571 -4.38,4.4336 -7.93,4.4336"
       style="fill:#2057af;fill-opacity:1;fill-rule:evenodd;stroke:none"
       transform="matrix(0.13333333,0,0,-0.13333333,0,122.66667)" />
    <path
       id="path21"
       d="m 1570.7,61.8164 c 3.25,5.5859 7.89,8.375 13.89,8.3789 5.83,0 10.07,-2.6758 12.73,-8.0234 4.09,5.3476 9.07,8.0195 14.92,8.0234 4.57,0 8.19,-1.5117 10.85,-4.5273 2.77,-3.168 4.16,-7.7227 4.16,-13.668 V 20.9883 h -14.02 v 29.7578 c 0,5.6758 -2.15,8.5117 -6.46,8.5117 -2.39,0 -4.29,-0.8359 -5.69,-2.5078 -1.4,-1.6445 -2.1,-3.9297 -2.1,-6.8555 V 20.9883 h -14.03 v 29.9375 c 0,5.5547 -2.17,8.332 -6.5,8.332 -2.36,0 -4.24,-0.8203 -5.65,-2.4609 -1.4,-1.6133 -2.1,-3.8555 -2.1,-6.7227 V 20.9883 h -14.03 v 47.9961 h 14.03 v -7.168"
       style="fill:#2057af;fill-opacity:1;fill-rule:nonzero;stroke:none"
       transform="matrix(0.13333333,0,0,-0.13333333,0,122.66667)" />
    <path
       id="path22"
       d="m 1655.96,58.0508 v 10.9336 h 6.59 v 5.332 c 0,5.7969 1.64,10.1719 4.93,13.1328 2.86,2.5664 6.73,3.8516 11.6,3.8516 3.95,0 7.62,-1.0156 11.03,-3.0469 l -3.59,-9.8164 c -1.7,0.9883 -3.31,1.4805 -4.84,1.4805 -1.58,0 -2.84,-0.5235 -3.76,-1.5664 -0.9,-1.0469 -1.35,-2.4532 -1.35,-4.2149 v -5.1523 h 9.86 V 58.0508 h -9.86 V 20.9883 h -14.02 v 37.0625 h -6.59"
       style="fill:#2057af;fill-opacity:1;fill-rule:nonzero;stroke:none"
       transform="matrix(0.13333333,0,0,-0.13333333,0,122.66667)" />
    <path
       id="path23"
       d="m 1738.08,70.1953 c 6.96,0 12.74,-2.3008 17.35,-6.9023 4.62,-4.6602 6.94,-10.6953 6.94,-18.1055 0,-7.5273 -2.35,-13.6367 -7.03,-18.3281 -4.61,-4.6016 -10.46,-6.8985 -17.57,-6.8985 -7.2,0 -13.09,2.2969 -17.66,6.8985 -4.57,4.5703 -6.86,10.5312 -6.86,17.8828 0,7.5859 2.39,13.7851 7.18,18.5976 4.53,4.5704 10.42,6.8555 17.65,6.8555 z m -0.04,-10.9375 c -6.99,0 -10.49,-4.7461 -10.49,-14.25 0,-5.5547 1.3,-9.5156 3.9,-11.875 1.64,-1.4922 3.73,-2.2383 6.27,-2.2383 3.74,0 6.47,1.4922 8.21,4.4805 1.43,2.418 2.14,5.6758 2.14,9.7695 0,4.0899 -0.7,7.3164 -2.1,9.6797 -1.74,2.9571 -4.38,4.4336 -7.93,4.4336"
       style="fill:#2057af;fill-opacity:1;fill-rule:evenodd;stroke:none"
       transform="matrix(0.13333333,0,0,-0.13333333,0,122.66667)" />
    <path
       id="path24"
       d="m 1792.64,20.9883 v 47.9961 h 14.03 v -8.1563 c 3.05,6.125 7.19,9.1875 12.42,9.1875 2.54,0 4.85,-0.6601 6.94,-1.9726 l -3.49,-12.6367 c -1.77,1.1054 -3.71,1.6562 -5.83,1.6601 -2.75,0 -5.02,-0.8984 -6.81,-2.6914 -2.15,-2.1484 -3.23,-5.2305 -3.23,-9.2305 V 20.9883 h -14.03"
       style="fill:#2057af;fill-opacity:1;fill-rule:nonzero;stroke:none"
       transform="matrix(0.13333333,0,0,-0.13333333,0,122.66667)" />
    <path
       id="path25"
       d="m 1848.73,58.0508 v 10.9336 h 6.59 v 9.6367 l 14.03,4.8828 V 68.9844 h 10.13 V 58.0508 h -10.13 V 36.8555 c 0,-3.4961 1.34,-5.2461 4.03,-5.2461 1.61,0 3.24,0.5078 4.89,1.5234 l 3.4,-9.4101 c -3.2,-2.5079 -7.02,-3.7618 -11.47,-3.7618 -4.96,0 -8.75,1.4454 -11.38,4.3438 -2.34,2.6016 -3.5,6.2148 -3.5,10.8476 v 22.8985 h -6.59"
       style="fill:#2057af;fill-opacity:1;fill-rule:nonzero;stroke:none"
       transform="matrix(0.13333333,0,0,-0.13333333,0,122.66667)" />
    <path
       id="path26"
       d="m 391.477,868.848 c 0,0 42.382,32.445 84.293,33.465 0,0 84.289,10.726 76.316,-76.309 0,0 -23.508,75.199 -127.473,12.574 l -246.582,-188.594 -0.062,0.329 c 0,0 -42.344,-32.442 -84.2542,-33.454 0,0 -84.28902,-10.718 -76.3164,76.317 0,0 23.3868,-75.004 127.4806,-12.188 l 0.125,0.551 246.473,187.309"
       style="fill:#2057af;fill-opacity:1;fill-rule:nonzero;stroke:none"
       transform="matrix(0.13333333,0,0,-0.13333333,0,122.66667)" />
    <path
       id="path27"
       d="m 396.117,779.094 c 0,0 42.383,32.441 84.305,33.457 0,0 84.293,10.715 76.305,-76.309 0,0 -23.512,75.192 -127.477,12.571 l -246.566,-188.598 -0.079,0.336 c 0,0 -42.332,-32.438 -84.2339,-33.477 0,0 -84.3086,-10.711 -76.3164,76.321 0,0 23.3672,-75 127.4803,-12.172 l 0.125,0.55 246.457,187.321"
       style="fill:#ed192d;fill-opacity:1;fill-rule:nonzero;stroke:none"
       transform="matrix(0.13333333,0,0,-0.13333333,0,122.66667)" />
    <path
       id="path28"
       d="m 462.07,526.352 h 51.739 l 14.656,74.613 c 4.308,23.976 5.176,29.637 7.551,53.344 3.441,-26.137 4.527,-32.868 9.464,-59.004 l 13.809,-68.953 h 51.516 l 37.918,190.191 h -46.754 l -15.098,-84.32 c -3.445,-21.285 -4.308,-27.215 -6.461,-48.227 -1.949,20.469 -2.582,26.141 -7.109,49.844 l -16.59,82.703 H 515.949 L 500.223,633.84 c -4.309,-23.172 -4.938,-28.832 -7.547,-50.11 -1.715,21.012 -2.582,26.665 -6.672,49.836 l -14.859,82.977 H 424.156 L 462.07,526.352"
       style="fill:#2057af;fill-opacity:1;fill-rule:nonzero;stroke:none"
       transform="matrix(0.13333333,0,0,-0.13333333,0,122.66667)" />
    <path
       id="path29"
       d="m 837.43,526.352 h 48.281 v 67.082 h 14.23 l 29.536,-67.082 h 53.453 l -37.082,76.777 c 7.105,3.508 13.586,6.465 19.625,14.539 10.992,14.012 11.636,30.988 11.636,38.262 0,18.32 -6.039,44.179 -26.293,54.961 -9.277,4.851 -23.054,5.929 -37.507,5.929 H 837.43 Z m 68.109,150.586 c 8.414,0 23.512,-0.536 23.512,-22.364 0,-21.543 -15.301,-22.078 -23.289,-22.078 h -20.051 v 44.442 h 19.828"
       style="fill:#2057af;fill-opacity:1;fill-rule:nonzero;stroke:none"
       transform="matrix(0.13333333,0,0,-0.13333333,0,122.66667)" />
    <path
       id="path30"
       d="m 1162.48,526.352 h 126.94 v 41.211 h -78.66 v 37.718 h 67.47 V 646.5 h -67.47 v 28.293 h 72.2 v 41.75 H 1162.48 V 526.352"
       style="fill:#2057af;fill-opacity:1;fill-rule:nonzero;stroke:none"
       transform="matrix(0.13333333,0,0,-0.13333333,0,122.66667)" />
    <path
       id="path31"
       d="m 1450.88,669.664 h 38.58 V 526.352 h 48.04 v 143.312 h 38.59 v 47.156 h -125.21 v -47.156"
       style="fill:#2057af;fill-opacity:1;fill-rule:nonzero;stroke:none"
       transform="matrix(0.13333333,0,0,-0.13333333,0,122.66667)" />
    <path
       id="path32"
       d="m 1587,526.352 h 126.93 v 41.211 h -78.66 v 37.718 h 67.46 V 646.5 h -67.46 v 28.293 h 72.19 v 41.75 H 1587 V 526.352"
       style="fill:#2057af;fill-opacity:1;fill-rule:nonzero;stroke:none"
       transform="matrix(0.13333333,0,0,-0.13333333,0,122.66667)" />
    <path
       id="path33"
       d="m 1738.96,526.352 h 48.28 v 67.082 h 14.2 l 29.53,-67.082 h 53.46 l -37.07,76.777 c 7.09,3.508 13.57,6.465 19.61,14.539 10.99,14.012 11.64,30.988 11.64,38.262 0,18.32 -6.04,44.179 -26.3,54.961 -9.27,4.851 -23.05,5.929 -37.5,5.929 h -75.85 z m 68.08,150.586 c 8.41,0 23.51,-0.536 23.51,-22.364 0,-21.543 -15.3,-22.078 -23.28,-22.078 h -20.03 v 44.442 h 19.8"
       style="fill:#2057af;fill-opacity:1;fill-rule:nonzero;stroke:none"
       transform="matrix(0.13333333,0,0,-0.13333333,0,122.66667)" />
    <path
       id="path34"
       d="m 1111.31,654.332 c -7.85,13.637 -20.6,22.504 -35,22.504 -23.84,0 -43.17,-24.297 -43.17,-54.285 0,-29.973 19.33,-54.285 43.17,-54.285 14.02,0 26.13,8.562 34.01,21.597 l 37.3,-24.066 c -15.66,-25.856 -41.78,-42.766 -71.31,-42.766 -47.93,0 -86.775,44.555 -86.775,99.52 0,54.961 38.845,99.512 86.775,99.512 0,0 41.15,5.535 68.37,-44.223 l -33.37,-23.508"
       style="fill:#2057af;fill-opacity:1;fill-rule:nonzero;stroke:none"
       transform="matrix(0.13333333,0,0,-0.13333333,0,122.66667)" />
    <path
       id="path35"
       d="m 1299.03,557.77 c 7.14,-10.516 15.84,-21.239 37.99,-30.899 11.96,-5.207 24.82,-5.66 36.66,-5.66 8.73,0 40.5,0 60.39,24.516 7.15,8.894 15.47,22.953 14.07,42.863 -3.19,45.465 -43.92,49.539 -79.02,56.808 -13.64,2.965 -17.52,8.965 -17.52,18.141 0,9.695 11.1,17.984 19.61,17.984 8.04,0 20.4,-0.882 29.57,-6.265 6.92,-4.32 8.87,-6.977 11.33,-10.75 l 27.73,28.699 c -5.58,7.008 -6.02,9.191 -17.88,16.188 -12.97,7.824 -27.69,13.957 -45.81,13.957 -28.38,0 -56.16,-11.707 -66.46,-39.739 -2.89,-7.547 -4.45,-16.172 -4.45,-24.531 0,-40.148 29.55,-50.285 44.1,-54.867 6.46,-1.871 35.68,-7.141 41.28,-9.57 8.72,-3.5 8.61,-16.372 8.4,-17.707 -2.08,-12.918 -19.5,-14.2 -23.53,-14.2 -7.61,0 -15.66,1.625 -22.14,4.309 -13.65,5.398 -19.75,12.808 -25.57,19.883 l -28.75,-29.16"
       style="fill:#2057af;fill-opacity:1;fill-rule:nonzero;stroke:none"
       transform="matrix(0.13333333,0,0,-0.13333333,0,122.66667)" />
    <path
       id="path36"
       d="m 734.898,676.043 c 5.223,0 27.649,-0.813 36.516,-27.191 2.613,-7.547 3.399,-15.891 3.399,-25.043 0,-35.801 -16.434,-54.922 -39.915,-54.922 -27.644,0 -40.679,19.922 -40.679,53.035 0,39.312 19.812,54.121 40.679,54.121 z m 0.145,47.484 c -56.992,0 -84.906,-47.484 -84.906,-101.371 0,-42.937 19.437,-100.035 84.008,-100.035 61.882,0 85.359,54.438 85.359,102.176 0,44.801 -22.125,99.23 -84.461,99.23"
       style="fill:#2057af;fill-opacity:1;fill-rule:nonzero;stroke:none"
       transform="matrix(0.13333333,0,0,-0.13333333,0,122.66667)" />
    <path
       id="path37"
       d="m 478.395,408.563 h 21.285 c 2.808,0 4.347,-0.282 5.605,-0.688 6.024,-1.969 6.442,-7.016 6.442,-9.109 0,-2.246 -0.559,-3.93 -0.844,-4.621 -0.832,-2.25 -2.656,-4.766 -8.254,-5.743 -1.965,-0.281 -5.465,-0.422 -5.606,-0.422 h -18.628 z m -23.536,18.496 v -98.887 h 45.946 c 9.519,0.285 19.043,0.695 27.172,6.168 10.367,6.855 11.765,17.074 11.765,21.418 0,4.906 -1.398,8.555 -2.242,10.234 -2.383,4.891 -7.148,10.223 -18.77,12.317 -1.257,0.281 -2.523,0.566 -3.921,0.707 4.48,0.972 5.879,1.398 8.261,2.375 4.34,1.964 12.891,7.422 12.891,20.316 0,7.422 -2.801,12.047 -4.766,14.563 -6.722,8.964 -17.644,10.082 -27.867,10.648 -2.523,0 -5.187,0.141 -7.848,0.141 z m 23.536,-57.008 h 21.425 c 4.207,0 6.164,-0.281 7.989,-0.988 2.8,-0.977 6.859,-3.778 6.859,-11.059 0,-4.055 -1.543,-6.305 -2.66,-7.563 -3.223,-3.367 -7.563,-4.058 -16.387,-4.339 h -17.226 v 23.949"
       style="fill:#2057af;fill-opacity:1;fill-rule:nonzero;stroke:none"
       transform="matrix(0.13333333,0,0,-0.13333333,0,122.66667)" />
    <path
       id="path38"
       d="m 588.758,386.438 c 5.75,0.285 9.105,-1.399 11.062,-2.801 4.207,-2.938 7.707,-8.555 7.707,-19.61 0,-10.929 -5.32,-20.867 -17.226,-20.867 -8.125,0 -12.321,4.625 -14.004,7.141 -1.399,2.23 -3.781,7.562 -3.781,14.703 0,10.785 4.621,16.953 8.543,19.328 3.078,1.68 6.726,1.965 7.699,2.106 z m 4.207,16.953 c -18.492,1.117 -28.574,-6.45 -33.613,-12.469 -8.266,-9.942 -8.547,-21.859 -8.547,-26.059 0,-15.269 6.164,-24.234 10.504,-28.433 10.082,-9.797 24.933,-10.504 28.714,-10.504 13.723,0 22.27,5.047 26.469,8.554 5.039,4.2 12.887,13.711 12.887,30.239 0,11.765 -4.34,23.402 -13.445,30.824 -6.864,5.457 -14.43,7.422 -22.969,7.848"
       style="fill:#2057af;fill-opacity:1;fill-rule:nonzero;stroke:none"
       transform="matrix(0.13333333,0,0,-0.13333333,0,122.66667)" />
    <path
       id="path39"
       d="m 688.902,380.414 c -1.257,0.977 -2.515,1.969 -3.918,2.801 -3.921,2.375 -9.804,4.48 -14.429,4.48 -3.078,0 -5.879,-0.707 -6.864,-1.257 -2.656,-1.118 -3.355,-3.083 -3.355,-4.34 0,-1.399 0.84,-2.66 1.957,-3.508 2.102,-1.399 7.422,-2.231 9.805,-2.656 l 9.664,-2.11 c 11.488,-2.941 21.711,-8.394 21.711,-21.984 0,-6.024 -2.243,-10.363 -3.5,-12.188 -6.45,-9.652 -19.895,-13.445 -30.957,-13.445 -3.922,0 -16.102,0.711 -26.75,7.281 -4.34,2.66 -7.289,5.598 -8.688,6.871 l 13.731,12.317 c 1.257,-1.262 2.523,-2.516 3.921,-3.492 4.758,-3.789 11.344,-6.59 17.368,-6.59 0.976,0 2.941,0.144 5.316,0.707 3.223,0.691 7.566,2.515 7.566,6.574 -0.136,5.047 -6.582,5.613 -14.421,6.871 -15.27,2.516 -22.411,6.024 -26.059,13.305 -2.098,3.918 -2.242,7.422 -2.242,9.105 0,1.949 0.426,6.305 3.082,10.914 3.367,6.024 11.633,13.586 27.875,13.586 4.625,0 15.41,-0.691 26.476,-6.996 2.098,-1.258 4.055,-2.515 6.02,-3.918 l -13.309,-12.328"
       style="fill:#2057af;fill-opacity:1;fill-rule:nonzero;stroke:none"
       transform="matrix(0.13333333,0,0,-0.13333333,0,122.66667)" />
    <path
       id="path40"
       d="m 763.418,376.625 c -0.141,0.426 -1.258,2.672 -2.383,4.215 -1.258,1.543 -5.324,6.023 -11.902,6.023 -1.543,0 -4.625,-0.14 -7.848,-2.531 -7.422,-5.602 -7.699,-18.07 -7.699,-19.469 0,-6.308 2.102,-14.422 7,-18.48 1.398,-1.129 4.48,-3.508 9.246,-3.508 7.004,0.145 10.785,4.766 12.047,6.59 0.699,1.117 1.258,1.949 2.098,4.344 l 16.246,-8.414 c -1.543,-2.375 -3.219,-4.891 -5.043,-7 -9.66,-11.34 -22.125,-12.61 -27.45,-12.61 -3.222,0 -9.66,0.422 -17.085,4.07 -13.727,6.715 -19.192,19.739 -19.192,34.313 0,3.352 0.141,10.367 3.641,18.48 8.261,19.204 26.332,20.743 33.054,20.743 5.75,0 18.629,-1.133 28.434,-13.446 0.84,-1.132 1.398,-1.965 2.805,-4.215 l -15.969,-9.105"
       style="fill:#2057af;fill-opacity:1;fill-rule:nonzero;stroke:none"
       transform="matrix(0.13333333,0,0,-0.13333333,0,122.66667)" />
    <path
       id="path41"
       d="m 810.902,393.578 c 0.418,0.426 2.243,2.516 4.2,3.914 6.722,5.192 13.445,5.758 16.527,5.758 9.805,0 15.41,-4.625 17.789,-7.281 1.539,-1.684 2.805,-3.793 3.504,-5.899 1.258,-3.207 1.676,-6.855 1.957,-13.855 v -48.043 h -21.426 v 38.23 c -0.14,5.598 0.277,13.036 -5.047,16.672 -1.816,1.258 -3.918,1.824 -6.023,1.824 -1.117,0 -3.918,-0.285 -6.442,-1.968 -4.621,-3.223 -5.32,-8.254 -5.179,-18.352 v -36.406 h -21.571 v 98.887 h 21.571 l 0.14,-33.481"
       style="fill:#2057af;fill-opacity:1;fill-rule:nonzero;stroke:none"
       transform="matrix(0.13333333,0,0,-0.13333333,0,122.66667)" />
    <path
       id="path42"
       d="m 981.355,396.234 c -0.425,0.707 -3.222,5.192 -6.304,7.848 -6.297,5.738 -13.863,6.023 -16.672,6.023 -1.816,0 -8.395,-0.14 -13.578,-3.507 -5.891,-3.774 -12.328,-12.453 -12.328,-28.289 0,-2.094 0,-15.961 6.863,-24.36 2.516,-3.082 5.883,-4.765 7.141,-5.472 1.824,-0.836 6.304,-2.661 11.902,-2.661 1.684,0 4.766,0 8.547,1.258 1.961,0.711 7.98,3.086 10.922,9.106 1.543,3.082 1.968,7.281 2.109,8.133 H 957.82 v 18.761 h 43 v -54.902 h -19.324 v 9.105 c -2.664,-2.39 -4.766,-4.07 -6.023,-4.906 -9.246,-6.164 -19.192,-6.445 -23.118,-6.445 -3.496,0 -10.777,0.281 -19.042,4.199 -17.926,8.695 -25.493,28.43 -25.493,47.492 0,7.281 1.403,33.606 24.368,46.5 4.066,2.375 12.328,6.289 24.375,6.289 18.488,0 29.832,-8.679 35.015,-13.304 3.5,-3.082 5.738,-5.879 8.552,-9.512 l -18.775,-11.356"
       style="fill:#2057af;fill-opacity:1;fill-rule:nonzero;stroke:none"
       transform="matrix(0.13333333,0,0,-0.13333333,0,122.66667)" />
    <path
       id="path43"
       d="m 1058.66,383.074 -7.14,-1.117 c -0.7,-0.141 -4.06,-0.566 -6.72,-1.543 -5.74,-1.965 -6.72,-5.598 -6.72,-11.07 v -41.172 h -21.43 v 73.254 h 20.87 v -7.707 c 1.82,1.539 3.78,3.508 8.54,5.457 5.88,2.39 9.95,2.676 12.6,2.941 v -19.043"
       style="fill:#2057af;fill-opacity:1;fill-rule:nonzero;stroke:none"
       transform="matrix(0.13333333,0,0,-0.13333333,0,122.66667)" />
    <path
       id="path44"
       d="m 1102.22,386.438 c 5.76,0.285 9.1,-1.399 11.07,-2.801 4.2,-2.938 7.71,-8.555 7.71,-19.61 0,-10.929 -5.33,-20.867 -17.24,-20.867 -8.11,0 -12.31,4.625 -13.99,7.141 -1.4,2.23 -3.79,7.562 -3.79,14.703 0,10.785 4.62,16.953 8.55,19.328 3.07,1.68 6.72,1.965 7.69,2.106 z m 4.22,16.953 c -18.5,1.117 -28.58,-6.45 -33.62,-12.469 -8.27,-9.942 -8.55,-21.859 -8.55,-26.059 0,-15.269 6.16,-24.234 10.5,-28.433 10.09,-9.797 24.94,-10.504 28.73,-10.504 13.71,0 22.26,5.047 26.46,8.554 5.03,4.2 12.88,13.711 12.88,30.239 0,11.765 -4.34,23.402 -13.45,30.824 -6.85,5.457 -14.41,7.422 -22.95,7.848"
       style="fill:#2057af;fill-opacity:1;fill-rule:nonzero;stroke:none"
       transform="matrix(0.13333333,0,0,-0.13333333,0,122.66667)" />
    <path
       id="path45"
       d="m 1222.11,401.281 v -73.109 h -21.56 v 6.859 c -1.54,-1.683 -2.39,-2.515 -3.22,-3.226 -2.66,-2.09 -9.1,-5.739 -18.07,-5.739 -1.68,0 -9.81,0 -15.55,4.481 -8.12,6.449 -7.57,18.211 -7.42,27.176 v 43.558 H 1178 v -45.523 c 0,-4.625 0,-8.258 4.06,-10.504 1.12,-0.836 3.08,-1.684 6.31,-1.684 6.85,0 10.5,3.93 11.48,6.59 0.7,1.82 0.7,3.649 0.85,5.598 v 45.523 h 21.41"
       style="fill:#2057af;fill-opacity:1;fill-rule:nonzero;stroke:none"
       transform="matrix(0.13333333,0,0,-0.13333333,0,122.66667)" />
    <path
       id="path46"
       d="m 1280.24,387.27 c 2.53,-0.688 4.76,-2.231 6.44,-4.196 5.32,-6.308 5.05,-15.824 5.05,-17.929 0,-7.848 -1.82,-12.188 -3.5,-15.27 -1.26,-2.234 -4.2,-7.566 -11.62,-7.566 -3.37,0 -5.89,1.261 -6.88,1.968 -1.68,0.977 -3.08,2.375 -4.19,3.914 -4.06,6.024 -3.78,14.848 -3.78,16.387 0,15.836 7.42,23.117 15.4,23.117 0.56,0 1.68,0 3.08,-0.425 z m -17.51,-54.332 c 6.31,-3.93 10.23,-6.165 17.93,-6.165 6.86,0 11.22,1.543 13.59,2.661 2.38,1.113 7.42,4.339 11.48,10.504 2.67,4.199 6.59,12.468 6.73,24.925 0,10.219 -2.39,21.008 -9.81,28.856 -7.97,8.539 -17.79,9.246 -21.99,9.246 -8.96,0 -14.7,-3.363 -17.36,-5.598 -1.54,-1.133 -1.96,-1.824 -3.08,-3.222 l -0.14,6.855 h -19.19 v -98.176 h 21.84 v 30.114"
       style="fill:#2057af;fill-opacity:1;fill-rule:nonzero;stroke:none"
       transform="matrix(0.13333333,0,0,-0.13333333,0,122.66667)" />
  </g>
</svg>
